<?xml version="1.0" encoding="utf-8"?>
<!-- Generator: Adobe Illustrator 16.0.0, SVG Export Plug-In . SVG Version: 6.00 Build 0)  -->
<!DOCTYPE svg PUBLIC "-//W3C//DTD SVG 1.1//EN" "http://www.w3.org/Graphics/SVG/1.1/DTD/svg11.dtd">
<svg version="1.1" id="_x32_6e08365-e7f3-4f87-b2fd-e29738693ebb"
	 xmlns="http://www.w3.org/2000/svg" xmlns:xlink="http://www.w3.org/1999/xlink" x="0px" y="0px" width="999px" height="797.25px"
	 viewBox="0 0 999 797.25" enable-background="new 0 0 999 797.25" xml:space="preserve">
<title>press play</title>
<path opacity="0.1" fill="#2271FF" enable-background="new    " d="M321.21,31.27C351.99,3.84,400.32-1.73,444.3,0.43
	c138.159,6.87,262.87,73.56,370.739,149c39.051,27.31,77.5,56.74,102.851,94.35c51.6,76.57,36.3,182.63-35.46,245.7
	c-24.41,21.46-54,37.909-84.391,52.5c-54,25.93-112.31,46.739-173.619,52.67c-43.73,4.22-88,0.789-131.461-5.11
	C371.5,573.08,252.31,536.63,152.4,474.35c-43.819-27.33-85.13-61.3-103.189-105.52c-18.061-44.22-6.5-100.2,38.29-126.4
	c18.51-10.82,40.64-15.71,62.3-20.3c31.89-6.76,64.29-13.42,93.06-27.15c29.721-14.19,64.92-41.63,59-73
	C295.5,88.26,290.5,58.63,321.21,31.27z"/>
<circle opacity="0.1" fill="#2271FF" enable-background="new    " cx="174.08" cy="129.4" r="31.5"/>
<circle opacity="0.1" fill="#2271FF" enable-background="new    " cx="108.09" cy="54.4" r="19.5"/>
<circle opacity="0.1" fill="#2271FF" enable-background="new    " cx="925.57" cy="114.4" r="12"/>
<ellipse opacity="0.1" fill="#2271FF" enable-background="new    " cx="689.92" cy="788.85" rx="84.239" ry="8.4"/>
<polygon fill="#5F5D7E" points="214,487.31 213.63,507.26 210.67,668.97 185.33,728.31 98,729.31 98,496.5 189.14,489.28 "/>
<polygon opacity="0.1" enable-background="new    " points="214,487.31 213.63,507.26 210.67,668.97 185.33,728.31 98,729.31 
	98,496.5 189.14,489.28 "/>
<polygon fill="#5F5D7E" points="214,487.31 213.63,507.26 210.67,668.97 185.33,728.31 192,507.64 191.98,507.5 189.14,489.28 "/>
<polygon opacity="0.1" enable-background="new    " points="189.14,489.28 214,487.31 213.63,507.26 191.98,507.5 98,508.55 
	98,496.5 "/>
<polygon fill="#5F5D7E" points="999,496.5 999,727.97 978.67,727.97 897.329,668.64 897.329,489.97 970,483.14 974.46,485.19 
	978.67,487.13 "/>
<rect x="978.67" y="485.19" opacity="0.1" enable-background="new    " width="20.33" height="242.779"/>
<polygon opacity="0.1" enable-background="new    " points="999,485.19 999,498.5 978.67,498.73 897.329,499.63 897.329,489.97 
	970,483.14 974.46,485.19 978.67,487.13 978.67,485.19 "/>
<polygon fill="#5F5D7E" points="999,477.64 999,496.5 0,507.64 0,483.64 94,464.64 912,458.64 "/>
<polygon opacity="0.1" enable-background="new    " points="999,477.64 999,496.5 0,507.64 0,483.64 "/>
<path fill="#474157" d="M388.32,194.97H692.6c12.604,0,22.82,10.217,22.82,22.82v226.05c0,12.604-10.217,22.82-22.82,22.82H388.32
	c-12.603,0-22.819-10.217-22.819-22.82V217.79C365.5,205.187,375.717,194.97,388.32,194.97z"/>
<rect x="393.659" y="219.48" fill="#EDEDF4" width="294.12" height="221.63"/>
<circle fill="#E6E8EC" cx="382.18" cy="330.29" r="4.82"/>
<circle fill="#E6E8EC" cx="700.81" cy="330.81" r="7.95"/>
<path fill="#E06E10" d="M572.43,331.15l-37.61-22.86c-2.483-1.375-5.611-0.477-6.986,2.006c-0.419,0.757-0.641,1.608-0.644,2.474
	v44.46c0.009,2.839,2.318,5.132,5.156,5.124c0.866-0.003,1.717-0.224,2.474-0.644l37.61-21.58c2.479-1.393,3.36-4.532,1.968-7.012
	C573.935,332.293,573.254,331.613,572.43,331.15z M600.71,335c0-29.271-23.729-53-53-53c-29.271,0-53,23.729-53,53s23.729,53,53,53
	l0,0C576.981,388,600.71,364.271,600.71,335z M504.97,335c0-23.604,19.135-42.74,42.74-42.74c23.604,0,42.739,19.136,42.739,42.74
	s-19.135,42.74-42.739,42.74l0,0c-23.6,0.005-42.735-19.121-42.74-42.72C504.97,335.013,504.97,335.007,504.97,335L504.97,335z"/>
<linearGradient id="SVGID_1_" gradientUnits="userSpaceOnUse" x1="770.3088" y1="-72.1401" x2="770.3088" y2="444.0269" gradientTransform="matrix(1 0 0 -1 -92.1001 721.8896)">
	<stop  offset="0" style="stop-color:#808080;stop-opacity:0.25"/>
	<stop  offset="0.54" style="stop-color:#808080;stop-opacity:0.12"/>
	<stop  offset="1" style="stop-color:#808080;stop-opacity:0.1"/>
</linearGradient>
<path fill="url(#SVGID_1_)" d="M803.88,509.14c-0.2-1.223-0.581-2.409-1.13-3.52c0.76-2.59,1.25-4.18,1.25-4.18s0-0.381-0.12-1
	c-1.233-7.578-7.875-13.08-15.551-12.881c-6,0.11-17.38,0.511-30,1.931c0.721-5.05,1.58-11.09,2.48-17.311l1.65,0.181
	c0.38,0,0.779,0,1.18,0.06h0.53c1.315,0.082,2.615-0.315,3.659-1.12c0.855-0.832,0.874-2.199,0.043-3.054
	c-0.202-0.209-0.445-0.374-0.713-0.486c2.997,0.299,5.941-0.935,7.83-3.279c1.74-2.435,1.74-5.706,0-8.141
	c-2.109-3-6.58-5-6.819-8.53c-0.131-2,1.21-3.8,2.26-5.569c5.201-9.082,3.699-20.519-3.67-27.95c-1.407-1.396-2.89-2.715-4.44-3.95
	c-2.2-8.08-4.5-15.3-5.18-15.53c-0.88-0.29-2.39-2.19-3.83-3.82c0.132-1.375,0.108-2.76-0.07-4.13c-1.06-7-8-12-11.819-18.18
	c-3.82-6.18-4.511-13.75-3.53-20.83c0.979-7.08,3.45-13.93,5.46-20.84c1.5-5.13,2.75-10.58,1.07-15.67
	c-1.19-3.63-3.78-6.77-6.45-9.72c-6.41-7.09-13.8-13.73-22.92-18c-6.34-2.988-13.283-4.474-20.29-4.34h-0.07l-1.1,0.06l-0.78,0.05
	l-0.78,0.08l-0.83,0.08l0,0c-0.85,0.11-1.689,0.24-2.529,0.41c-6.092-1.354-12.311-2.052-18.551-2.08h-0.81
	c-1.851-0.109-3.693,0.325-5.3,1.25c-2.221,1.55-2.5,4.33-3.17,6.75c-1.204,4.05-3.741,7.574-7.2,10c-2.39,1.72-5.2,3-7.48,4.8
	c-2.279,1.8-4.06,4.5-3.449,7.16c0.51,2.23,2.59,3.89,5,4.9c-0.29,0.36-0.591,0.71-0.87,1.08c0.47,0.19,1,0.36,1.43,0.5
	c3,0.89,6.23,1,9.27,1.81c0.837,0.224,1.659,0.501,2.461,0.83c-2.704,5.086-4.116,10.759-4.11,16.52
	c0.023,13.031,7.166,25.007,18.62,31.22c0,0.34,0,0.67,0,1c0.31,10.44-0.48,23.14-5.82,25.29s-10.45,4.58-13.6,6.15l-1,0.53
	c-0.83-0.38-1.66-0.78-2.471-1.2c0,0-4.25-0.5-3.51,2.74c0,0-12.85-2-19.899,3.489c-7.051,5.49-18.62,16.951-20.891,19.94
	c-2.27,2.99-19.819,9.53-19.819,9.53s5.529-7.729,3.14-17.199c0,0-2.64-11.421-1.38-16c1.26-4.58,4.529-21.58,4.529-21.58
	s0.461-17.94-9.329-26.17s-16.601-15-12.82-7c1.652,3.667,3.501,7.242,5.54,10.71c0,0-23.41,5.56-15.101,14.24
	c8.311,8.68,10.57,8.69,10.57,8.69s-2.77,21.43-3.28,25.419c-0.51,3.99-5,34.391-5,34.391s-0.25,14.46,2.271,16.7
	c0,0,1.649,9.31,12.08,9c0,0,19.88-0.5,25.42-2.74s24.66-14.21,26.68-13.46c0.146,0.059,0.279,0.147,0.391,0.26
	c0.106,0.093,0.207,0.193,0.3,0.301c-2,4.43-6.74,19.47-4.721,26.859c0,0-1.76,20.93,8.811,27.66c0,0,15.35,25.92,9.56,39.87
	c-0.46,1.13-0.87,2.17-1.25,3.18c-8.79-7.29-22.199-14-42.68-17.71c-2.09-0.38-4.17-0.84-6.229-1.34
	c-5.82-1.41-21.83-2.7-29.45,22.61c-1.777,5.883-4.038,11.609-6.761,17.119c-3,6.07-6.329,14.771-6.399,23.4
	c-0.17,12.1,6.08,24.09,28.76,28.49c0.25,9,1.28,19.72,4.36,27.43c6.29,15.7,16.359,41.12,16.359,41.12s12.08,25.92,12.841,36.38
	c0.489,6.851,1.21,15.83,0.71,22c0,0.38-0.061,0.74-0.101,1.101c-1.036,1.118-2.167,2.146-3.38,3.069c-1.76,1-7.55,7.23-7.55,8.72
	c0.013,1.429,0.14,2.853,0.38,4.261c-2.74,2.39-4.24,5-4.24,7.6c0,13.521,38.37,24.48,85.7,24.48s85.69-11,85.69-24.48
	c0-12.34-32-22.54-73.58-24.22c8.67-3.46,16.37-7.09,19.56-10c0.685-0.533,1.208-1.247,1.51-2.061l-8.05-18.689
	c0,0-0.63,0.14-1.56,0.41l-0.561-0.841c-3.58-5.449-10.47-16.31-10.47-19.26c0-1.09-1.82-8.06-4.46-17.609v-30.65
	c26.26,4,60.1-1.439,60.1-1.439l0.15-0.08h0.66v-0.36c4.55-2.52,27.31-15.85,34.06-33.53c2-5.16-0.489-12.55-5.439-20.45
	c3.46-8.59,12-30.779,11.149-39.63c0-0.47-0.06-1-0.06-1.52c0.08-0.904,0.114-1.813,0.1-2.72c1-13,9-36.75,9-36.75
	S803.98,509.74,803.88,509.14z M633.88,451.38c1.819,3.2,3.77,7.29,4.54,8.95l0,0c0,0-2.66-4.9-4.49-8.95H633.88z M635.78,731.48
	l-0.189,0.069v-1c-0.109-2.607-0.046-5.22,0.189-7.819c0.028-1.401-0.267-2.791-0.859-4.061c-3.082-7.743-5.143-15.854-6.131-24.13
	c-1-8.72-1.829-18.23-1.31-20.65c0.78-3.71,1.42-31.81,0.45-45.659l15.479,3.479l18,36.7c0,0,11.58,17.92,15.17,32.06v14.16
	c-1.05,4.219-2.885,8.201-5.409,11.74c-2.391,3.27-4.721,6.58-6.881,10c-0.659,1.06-1.39,2.149-2.119,3.17
	c-0.24,0-12.07,0.69-14.08,2.91c-1.24,1.37-3.4,3.53-3.761,5.7l-0.51,0.08c-2.319-6.91-7.99-16.75-7.99-16.75H635.78z"/>
<path opacity="0.1" enable-background="new    " d="M711.93,718.63l-4,13l-17,14.75l-25,7.18c0,0-11.75-6.43-7.75-7.68
	c1.109-0.35,2.43-1.62,3.77-3.28c-1.399,5.101,9.73-1.47,9.73-1.47s28.75-20.5,31.75-22.75c1.967-1.305,4.127-2.293,6.399-2.93
	C711.079,717.4,711.93,718.63,711.93,718.63z"/>
<path fill="#FDC2CC" d="M711.93,718.63l-4,13l-17,14.75l-25,7.18c0,0-11.75-6.43-7.75-7.68c1.109-0.35,2.43-1.62,3.77-3.28
	c1.207-1.539,2.322-3.149,3.34-4.819c2.141-3.44,4.461-6.761,6.83-10c3.459-4.923,5.628-10.634,6.311-16.61
	c1.75-13.75-16-41.5-16-41.5l-32.25-66.25l45,5.5c0,0,24.25,83.25,24.25,87.25c0,3,6.84,13.85,10.4,19.32
	C711.079,717.4,711.93,718.63,711.93,718.63z"/>
<ellipse fill="#5F5D7E" cx="686.97" cy="771.05" rx="85.12" ry="24.55"/>
<path fill="#2271FF" d="M719.93,734.63c-0.304,0.813-0.822,1.528-1.5,2.07c-6.18,5.67-29.29,14.1-43.57,18.68
	c-3.743,1.307-7.56,2.392-11.43,3.25c-3.5,0.25-10.75-2-15.75-5.07c-5-3.069-0.5-7.43,1.52-9.68c2.021-2.25,14-2.92,14-2.92
	c-5.75,9.57,8.49,1.17,8.49,1.17s28.75-20.5,31.75-22.75s8.5-3.5,8.5-3.5L719.93,734.63z"/>
<path opacity="0.3" enable-background="new    " d="M719.93,734.63c-0.304,0.813-0.822,1.528-1.5,2.07
	c-6.18,5.67-29.29,14.1-43.57,18.68c-3.743,1.307-7.56,2.392-11.43,3.25c-3.5,0.25-10.75-2-15.75-5.07c-5-3.069-0.5-7.43,1.52-9.68
	c2.021-2.25,14-2.92,14-2.92c-5.75,9.57,8.49,1.17,8.49,1.17s28.75-20.5,31.75-22.75s8.5-3.5,8.5-3.5L719.93,734.63z"/>
<path opacity="0.1" enable-background="new    " d="M718.43,736.72c-6.18,5.67-29.29,14.101-43.57,18.681
	C687.8,744.44,709.5,738.71,718.43,736.72z"/>
<ellipse opacity="0.1" enable-background="new    " cx="686.97" cy="763.14" rx="17.03" ry="4.91"/>
<rect x="677.5" y="633.64" fill="#5F5D7E" width="17.5" height="129.5"/>
<path opacity="0.1" enable-background="new    " d="M695,640.06v15c-3.5-1.079-11.49-5.63-17.5-9.21v-12.22h3.649L695,640.06z"/>
<path fill="#474157" d="M653.77,577.26c0,0,57.78-14.87,72.16-26s70.85,41.24,63.39,61s-34.62,34.07-34.62,34.07
	S679.59,658.55,666.8,633.06C654.01,607.57,653.77,577.26,653.77,577.26z"/>
<path opacity="0.1" enable-background="new    " d="M653.77,577.26c0,0,57.78-14.87,72.16-26s70.85,41.24,63.39,61
	s-34.62,34.07-34.62,34.07S679.59,658.55,666.8,633.06C654.01,607.57,653.77,577.26,653.77,577.26z"/>
<path fill="#474157" d="M648.77,571.26c0,0,57.78-14.87,72.16-26s70.85,41.24,63.39,61s-34.62,34.07-34.62,34.07
	S674.59,652.55,661.8,627.06C649.01,601.57,648.77,571.26,648.77,571.26z"/>
<path fill="#FDC2CC" d="M595.18,434.9l-6.25-2.271c0,0,5.5-7.75,3.13-17.25c0,0-2.63-11.46-1.38-16.101
	c1.25-4.639,4.5-21.649,4.5-21.649s0.46-18-9.271-26.25c-9.729-8.25-16.479-15-12.729-7c1.638,3.68,3.474,7.269,5.5,10.75
	c0,0-23.25,5.57-15,14.29c8.25,8.72,10.5,8.71,10.5,8.71s-2.75,21.5-3.25,25.5s-5,34.5-5,34.5s-0.25,14.5,2.25,16.75
	c1.148,5.603,6.3,9.466,12,9C581.96,463.85,603.18,440.4,595.18,434.9z"/>
<path fill="#FDC2CC" d="M746.18,388.9v14l-14.5,4.729l-24.7,18.18l-6.55,4.82l-29.25-11.75l-18.5-19.5c0,0,0.899-0.49,2.46-1.3
	l1-0.53c3.13-1.57,8.06-4,13.51-6.17s6.09-14.89,5.78-25.37v-1c-0.25-7.35-1-13.36-1-13.36s3.05-0.58,7.49-1.24
	c12.31-1.83,35.279-4.3,33.26,3.24c-0.59,2.563-0.59,5.227,0,7.79c0.06,0.28,0.12,0.57,0.189,0.85
	c2.08,9.09,8.521,18.61,8.521,18.61l20,7.2l0.56,0.2L746.18,388.9z"/>
<path fill="#FDC2CC" d="M746.18,393.15v-4.25c1.571-0.271,3.178-0.271,4.75,0c1.75,0.5,5.07,5.75,6.57,6.25s10.68,34.75,9.68,37.75
	s-10.45,70.729-10.45,70.729l-19.05,21l-3.75-57.75l12.25-34.25V393.15z"/>
<path fill="#FDC2CC" d="M647.43,550.4c0,0-17.41,3.75-15.2,9.25s11.95,5.75,11.95,5.75L647.43,550.4z"/>
<path fill="#FDC2CC" d="M671.68,439.35L658.43,467.9l-15.75,11.5l-2.75-17.771c0,0-5.32-11.75-7.61-13.74
	c-0.11-0.112-0.243-0.2-0.39-0.26c-2-0.75-21,11.25-26.5,13.5s-25.25,2.75-25.25,2.75l8.75-31.25c0,0,17.5-6.5,19.75-9.5
	s13.75-14.5,20.75-20s19.77-3.5,19.77-3.5l0.2,0.08l3.28,1.42l9.5,23.25L671.68,439.35z"/>
<path fill="#FDC2CC" d="M636.93,724.15c-0.235,2.605-0.299,5.225-0.19,7.84c0.07,2.79,0.19,5.16,0.19,5.16l-5.75,12
	c0,0-19.75,6.5-16.5,3.75c1.13-0.95,1.71-3.42,2-6.69c0.49-6.18-0.22-15.19-0.71-22.06c-0.75-10.5-12.75-36.5-12.75-36.5
	s-10-25.5-16.25-41.25s-4-44.25-4-44.25s1-21.5,5.5-28s22-8.75,22-8.75l8.21,27.229c0,0,6.75,25.5,9.25,29.25s1.75,48.5,0.75,53.25
	c-0.51,2.43,0.35,12,1.31,20.72c0.98,8.295,3.023,16.428,6.08,24.2C636.666,721.333,636.961,722.735,636.93,724.15z"/>
<path opacity="0.1" enable-background="new    " d="M636.93,737.15l-5.75,12c0,0-19.75,6.5-16.5,3.75c1.13-0.95,1.71-3.42,2-6.69
	c0.71-0.71,1.47-1.49,2.25-2.29c5.025-5.21,11.113-9.279,17.85-11.93l0,0C636.81,734.78,636.93,737.15,636.93,737.15z"/>
<path fill="#2271FF" d="M645.949,755.01c0.006,0.047,0.006,0.094,0,0.141c-1,4.75-17.5,11.25-17.5,11.25s-10.5,1.75-16.5,3.25
	c-0.459,0.123-0.936,0.167-1.41,0.13c-4.63-0.351-4.84-9.261-4.84-10.63c0-1.37,5.75-7.75,7.5-8.75
	c1.979-1.642,3.837-3.423,5.561-5.33c5.132-5.314,11.346-9.465,18.22-12.17l0,0C636.98,732.9,646.75,750.08,645.949,755.01z"/>
<path opacity="0.3" enable-background="new    " d="M645.949,755.01c0.006,0.047,0.006,0.094,0,0.141c-1,4.75-17.5,11.25-17.5,11.25
	s-10.5,1.75-16.5,3.25c-0.459,0.123-0.936,0.167-1.41,0.13c-4.63-0.351-4.84-9.261-4.84-10.63c0-1.37,5.75-7.75,7.5-8.75
	c2.011-1.662,3.896-3.471,5.641-5.41c5.023-5.235,11.114-9.328,17.859-12l0.28-0.11C636.98,732.88,646.75,750.08,645.949,755.01z"/>
<path opacity="0.1" enable-background="new    " d="M645.949,755.01c0.006,0.047,0.006,0.094,0,0.141c-1,4.75-17.5,11.25-17.5,11.25
	s-10.5,1.75-16.5,3.25c-0.459,0.123-0.936,0.167-1.41,0.13c5.44-3.73,18.631-12.681,20.41-12.88
	C632.73,756.7,641.5,754.18,645.949,755.01z"/>
<path opacity="0.1" enable-background="new    " d="M715.409,362.29c-6.18,5.09-11.859,4.36-20.489,4.36
	c-6.24,0-14.351,2.19-19.461-0.62c-0.21-7.81-1-14.38-1-14.38s43.5-8.25,40.75,2C714.581,356.504,714.65,359.468,715.409,362.29z"/>
<path fill="#FDC2CC" d="M728.43,333.69c0,19.744-16.006,35.75-35.75,35.75l0,0c-0.92,0-1.84,0-2.74-0.1l0,0
	c-19.686-1.519-34.413-18.708-32.894-38.394c1.519-19.686,18.708-34.413,38.394-32.894c18.62,1.437,32.997,16.963,33,35.638H728.43z
	"/>
<path opacity="0.1" enable-background="new    " d="M662.18,424.4l9.5,15l-13.25,28.55l-15.75,11.5l-2.75-17.82
	c0,0-5.32-11.75-7.61-13.74c0.66-1.609,1.11-2.35,1.11-1.76c0,2.5,6.149,13.75,6.149,13.75c19-6.5,13.101-31.75,13.101-31.75
	s-2.36-22.5-3.28-28.42l3.28,1.42L662.18,424.4z"/>
<path opacity="0.1" enable-background="new    " d="M746.18,388.9v14l-14.5,4.729l-24.7,18.18l-6.55,4.82l-29.25-11.75l-18.5-19.5
	c0,0,0.899-0.49,2.46-1.3l1-0.53c12.87,5.851,26.8,8,36.75,8.771c4.576,0.388,9.171,0.491,13.76,0.31
	c37.67-6,38.79-15.1,37.851-18.33L746.18,388.9z"/>
<path fill="#E06E10" d="M756.93,615.63c-9.43,4.624-19.111,8.713-29,12.25c-17.25,6.25-55.25-2-60-3.25s-41.25-15.75-55.25-21.25
	s-17.5-1-20.75-1.5s-5.5-6.75-6-8.5s9-17,14.25-24.75s21-6.25,23.25-6.75s18,0,18,0s-1-5,4.75-19s-9.5-40-9.5-40
	c-10.5-6.75-8.75-27.75-8.75-27.75c-2.5-9.25,5.5-30.5,5.5-28s6.149,13.75,6.149,13.75c19-6.5,13.101-31.75,13.101-31.75
	s-2.75-26.25-3.48-29.5c-0.729-3.25,3.48-2.75,3.48-2.75c0.813,0.42,1.633,0.82,2.46,1.2c13.16,6.2,27.56,8.46,37.78,9.24
	c4.575,0.388,9.171,0.491,13.76,0.31c45.67-7.37,37.58-19.12,37.28-19.54l2.22,0.79c16.5,12,11.5,51.75,11.5,51.75l-6.18,29.67
	l-4.591,22.101c0,0,16.25,98.5,17.75,103.5S756.93,615.63,756.93,615.63z"/>
<path opacity="0.1" enable-background="new    " d="M635.18,570.63c-1,0.75-12.25,24-4,30.5S635.18,570.63,635.18,570.63z"/>
<path opacity="0.1" enable-background="new    " d="M643.18,573.9c0.25,0.75,23.5,37.75,36.25,40.75L643.18,573.9z"/>
<path opacity="0.1" enable-background="new    " d="M699.19,281.11l-3.72,0.79c1.025-0.378,2.074-0.688,3.14-0.93L699.19,281.11z"/>
<path opacity="0.1" enable-background="new    " d="M755.21,440.63l-7,29.65c-3.571-1.629-6.854-3.828-9.721-6.511
	c-2.229-2.119-4.229-4.55-7.1-5.939c-3.69-1.79-8.14-1.55-12.33-1.7c-5.234-0.195-10.419-1.083-15.42-2.64
	c-1.453-0.364-2.814-1.025-4-1.94c-2.38-2.1-2.22-5.49-2-8.45c0.435-5.753,0.485-11.529,0.15-17.29
	c-0.061-1.079-0.141-2.159-0.23-3.239c-0.4-4.83-1.7-10.43-6.64-12.5c-2.54-1-5.57-0.92-8-2.131c-0.352-0.176-0.686-0.383-1-0.619
	c-3.601-2.521-3.931-7.57-3.79-11.82c0.213-5.84,0.416-11.684,0.609-17.53c0.183-2.883,0.119-5.777-0.189-8.65l0,0
	c-0.241-1.908-0.767-3.768-1.561-5.52c-2.17-4.64-6.689-8.51-7.5-13.41c-0.044-0.228-0.074-0.458-0.09-0.69
	c-0.42-4.38,2.34-8.46,3.311-12.77c1.939-8.67-4.58-18.17-14.17-20.66c-3-0.78-6.221-0.93-9.21-1.82
	c-0.479-0.143-0.949-0.31-1.41-0.5c7.239-9.66,19.649-16,33.739-16c22.33,0,40.44,16,40.44,35.75c0,11.2-5.83,21.19-14.94,27.75
	c0.061,0.28,0.131,0.57,0.21,0.85c2.351,9.09,9.641,18.61,9.641,18.61l22.64,7.2l2.521,0.8
	C760.869,400.9,755.21,440.63,755.21,440.63z"/>
<path opacity="0.1" enable-background="new    " d="M767.5,469.35c-0.221,0-0.431-0.05-0.641-0.09
	C767.077,469.237,767.297,469.268,767.5,469.35z"/>
<path fill="#474157" d="M690.18,280.12c-6.257-1.454-12.657-2.202-19.08-2.23c-2.09,0-4.33,0.11-6,1.26
	c-2.21,1.55-2.49,4.35-3.15,6.77c-1.193,4.041-3.712,7.563-7.149,10c-2.37,1.73-5.16,3-7.431,4.82c-2.27,1.82-4,4.52-3.43,7.18
	s3.561,4.71,6.561,5.56s6.189,1,9.21,1.82c9.59,2.49,16.1,12,14.159,20.65c-1,4.31-3.729,8.39-3.31,12.77
	c0.49,5.23,5.32,9.26,7.59,14.11c2.07,4.42,1.93,9.38,1.771,14.16l-0.61,17.54c-0.16,4.621,0.24,10.18,4.8,12.441
	c2.44,1.199,5.48,1.069,8,2.129c4.94,2.061,6.24,7.67,6.641,12.49c0.571,6.83,0.598,13.695,0.08,20.53c-0.23,3-0.391,6.35,2,8.45
	c1.183,0.919,2.545,1.58,4,1.939c5,1.557,10.186,2.445,15.42,2.641c4.199,0.159,8.64-0.08,12.33,1.699
	c2.869,1.391,4.869,3.83,7.1,5.94c6.394,5.851,14.544,9.419,23.18,10.15c1.851,0.159,3.95,0.12,5.24-1.07s0.53-3.76-1.311-3.61
	c3.184,0.535,6.406-0.697,8.421-3.22c1.724-2.45,1.724-5.72,0-8.17c-2.091-3-6.53-5-6.771-8.56c-0.13-2,1.2-3.811,2.24-5.591
	c5.15-9.104,3.667-20.516-3.641-27.999c-4.689-4.851-11.72-8.531-13.359-14.75c-1.09-4.161,0.56-8.531-0.07-12.761
	c-1-7-7.93-12-11.74-18.24c-3.81-6.24-4.479-13.79-3.51-20.89s3.43-14,5.43-20.9c1.49-5.15,2.721-10.62,1.061-15.73
	c-1.19-3.63-3.75-6.78-6.41-9.75c-6.37-7.11-13.7-13.77-22.76-18c-9.061-4.23-20.101-5.87-29.72-2.74"/>
<path opacity="0.1" enable-background="new    " d="M690.18,280.12c-6.257-1.454-12.657-2.202-19.08-2.23c-2.09,0-4.33,0.11-6,1.26
	c-2.21,1.55-2.49,4.35-3.15,6.77c-1.193,4.041-3.712,7.563-7.149,10c-2.37,1.73-5.16,3-7.431,4.82c-2.27,1.82-4,4.52-3.43,7.18
	s3.561,4.71,6.561,5.56s6.189,1,9.21,1.82c9.59,2.49,16.1,12,14.159,20.65c-1,4.31-3.729,8.39-3.31,12.77
	c0.49,5.23,5.32,9.26,7.59,14.11c2.07,4.42,1.93,9.38,1.771,14.16l-0.61,17.54c-0.16,4.621,0.24,10.18,4.8,12.441
	c2.44,1.199,5.48,1.069,8,2.129c4.94,2.061,6.24,7.67,6.641,12.49c0.571,6.83,0.598,13.695,0.08,20.53c-0.23,3-0.391,6.35,2,8.45
	c1.183,0.919,2.545,1.58,4,1.939c5,1.557,10.186,2.445,15.42,2.641c4.199,0.159,8.64-0.08,12.33,1.699
	c2.869,1.391,4.869,3.83,7.1,5.94c6.394,5.851,14.544,9.419,23.18,10.15c1.851,0.159,3.95,0.12,5.24-1.07s0.53-3.76-1.311-3.61
	c3.184,0.535,6.406-0.697,8.421-3.22c1.724-2.45,1.724-5.72,0-8.17c-2.091-3-6.53-5-6.771-8.56c-0.13-2,1.2-3.811,2.24-5.591
	c5.15-9.104,3.667-20.516-3.641-27.999c-4.689-4.851-11.72-8.531-13.359-14.75c-1.09-4.161,0.56-8.531-0.07-12.761
	c-1-7-7.93-12-11.74-18.24c-3.81-6.24-4.479-13.79-3.51-20.89s3.43-14,5.43-20.9c1.49-5.15,2.721-10.62,1.061-15.73
	c-1.19-3.63-3.75-6.78-6.41-9.75c-6.37-7.11-13.7-13.77-22.76-18c-9.061-4.23-20.101-5.87-29.72-2.74"/>
<path opacity="0.1" enable-background="new    " d="M636.68,502.9c0,0,8.5,3.25,17.5-5.75S636.68,502.9,636.68,502.9z"/>
<g opacity="0.1">
	<path d="M693.94,279.97c1.649-0.328,3.32-0.538,5-0.63c-2.335-0.143-4.679-0.069-7,0.22L693.94,279.97z"/>
	<path d="M744.079,462.79c-2.239-2.11-4.229-4.55-7.109-5.94c-3.681-1.779-8.13-1.54-12.33-1.699
		c-5.234-0.192-10.42-1.08-15.42-2.641c-1.454-0.359-2.817-1.021-4-1.939c-2.38-2.101-2.21-5.48-2-8.45
		c0.519-6.835,0.491-13.7-0.08-20.53c-0.41-4.82-1.7-10.43-6.65-12.49c-2.53-1.06-5.56-0.93-8-2.13c-4.56-2.26-5-7.819-4.81-12.44
		c0.206-5.847,0.41-11.69,0.609-17.53c0.17-4.79,0.301-9.75-1.77-14.17c-2.271-4.85-7.1-8.87-7.59-14.11
		c-0.41-4.37,2.35-8.46,3.319-12.77c1.94-8.67-4.579-18.16-14.17-20.65c-3-0.78-6.22-0.94-9.21-1.82s-5.89-2.78-6.51-5.5
		s1.15-5.36,3.42-7.19c2.271-1.83,5.061-3.09,7.44-4.82c3.438-2.434,5.953-5.958,7.14-10c0.67-2.42,1-5.21,3.15-6.77
		c1.232-0.765,2.649-1.179,4.1-1.2c-0.89,0-1.78-0.05-2.66-0.05c-2.09,0-4.33,0.11-6,1.25c-2.21,1.56-2.49,4.35-3.149,6.77
		c-1.194,4.041-3.713,7.563-7.15,10c-2.37,1.73-5.16,3-7.43,4.82c-2.271,1.82-4,4.52-3.431,7.19c0.57,2.67,3.53,4.61,6.521,5.5
		s6.189,1,9.21,1.82c9.59,2.49,16.1,12,14.16,20.65c-1,4.31-3.73,8.4-3.311,12.77c0.49,5.24,5.32,9.26,7.59,14.11
		c2.07,4.42,1.94,9.38,1.771,14.17c-0.207,5.84-0.41,11.683-0.61,17.53c-0.159,4.621,0.24,10.18,4.801,12.44
		c2.439,1.2,5.479,1.07,8,2.13c4.939,2.061,6.239,7.67,6.64,12.49c0.571,6.83,0.599,13.695,0.08,20.53c-0.23,3-0.39,6.35,2,8.45
		c1.183,0.919,2.546,1.58,4,1.939c5,1.562,10.186,2.449,15.42,2.641c4.2,0.159,8.64-0.08,12.33,1.699
		c2.87,1.391,4.87,3.83,7.11,5.94c6.389,5.852,14.536,9.422,23.17,10.15c1.116,0.133,2.247,0.089,3.35-0.131
		C757.833,471.865,750.155,468.358,744.079,462.79z"/>
</g>
<path opacity="0.1" enable-background="new    " d="M588.93,432.63c0,0-8,7.34-6.83,10.34S588.93,432.63,588.93,432.63z"/>
<path fill="#474157" d="M596.35,526.98c-5.771-1.41-21.68-2.711-29.25,22.68c-1.763,5.897-4.007,11.64-6.71,17.17
	c-7.26,14.91-16.641,45.57,24.609,52.32l99,22.5c0,0,53,6.5,56.5,4s3-8,3-8s-58.5,0-70-18s-12-42.5-12-42.5s1.44-37.83-59-48.82
	C600.5,527.95,598.4,527.48,596.35,526.98z"/>
<path opacity="0.1" enable-background="new    " d="M596.35,527.15c-5.771-1.41-21.68-2.71-29.25,22.689
	c-1.763,5.897-4.007,11.641-6.71,17.17c-7.26,14.9-16.641,45.561,24.609,52.311l99,22.5c0,0,53,6.5,56.5,4s3-8,3-8s-58.5,0-70-18
	s-12-42.5-12-42.5s1.44-37.83-59-48.82C600.5,528.12,598.4,527.63,596.35,527.15z"/>
<path fill="#474157" d="M803.88,501.11c-1.186-7.569-7.791-13.093-15.45-12.92c-14.24,0.26-58.07,2.159-78.43,15.46
	c0,0-15.5,10-20,10s-65.5,52,25,98.5c0,0,48.5,13.8,67.5-18.601c0,0,13.5-34.8,12.5-46.85s9-44.55,9-44.55
	S803.98,501.76,803.88,501.11z"/>
<path opacity="0.1" enable-background="new    " d="M803.88,509.87c-1.141-7-7.801-12.061-15.45-11.93
	c-14.24,0.239-58.07,2-78.43,14.27c0,0-15.5,9.23-20,9.23s-65.5,48,25,90.93c0,0,48.5,12.74,67.5-17.17c0,0,13.5-32.13,12.5-43.25
	s9-41.12,9-41.12S803.98,510.47,803.88,509.87z"/>
<rect x="739.5" y="612.14" fill="#5F5D7E" width="16" height="34.07"/>
<ellipse opacity="0.1" enable-background="new    " cx="170.24" cy="470.71" rx="45.039" ry="2.89"/>
<path fill="#2271FF" d="M208.04,359.25c-0.96,1.315-1.728,2.759-2.28,4.29c-0.14,0.38-0.28,0.8-0.42,1.21
	c-0.252-0.12-0.518-0.21-0.79-0.27c-1.166-0.292-2.371-0.396-3.57-0.31c0-0.46,0.061-1,0.07-1.46c0.15-5.27-0.47-12.62-5.5-9.51
	c-4.82,3-1.38,8,1.729,11.21l0.801,0.78c-2.841,2-3.38,6.73-3.851,11.64c-0.47,4.91-4.64,10.29-7.41,13.34
	c-0.279,0.31-0.529,0.59-0.779,0.85c-2.263-1.812-5.194-2.566-8.051-2.07c-0.109-0.43-0.239-0.88-0.369-1.36
	c-2.24-8.08-6.891-22.09-12.82-25.16l0.78-1c2.52-3.3,5.359-8.19,1.17-9.45c-4.19-1.26-4.57,4.25-4.34,8.37
	c0,0.52,0.079,1,0.119,1.46c-1.691,0.082-3.275,0.855-4.38,2.14l-0.649-0.76c-3.4-4-9.63-10.37-11.521-5.56
	c-1.76,4.48,3.73,10.29,7.59,13.66l0.24,0.21c-2.59,10.53,8.69,19.13,14.811,22.85l0.79,0.48c-8.4,9.9-13.591,28.45-13.591,28.45
	l23.521,4.2c0,0,15.6-13.45,13.6-26.09h0.16c15.59-3.121,19.13-19.741,16.7-29.61l0.28-0.11c2.838-1.165,5.325-3.046,7.22-5.46
	C221.66,360.14,212.5,353.3,208.04,359.25z"/>
<path opacity="0.1" enable-background="new    " d="M208.04,359.25c-0.96,1.315-1.728,2.759-2.28,4.29
	c-0.14,0.38-0.28,0.8-0.42,1.21c-0.252-0.12-0.518-0.21-0.79-0.27c-1.166-0.292-2.371-0.396-3.57-0.31c0-0.46,0.061-1,0.07-1.46
	c0.15-5.27-0.47-12.62-5.5-9.51c-4.82,3-1.38,8,1.729,11.21l0.801,0.78c-2.841,2-3.38,6.73-3.851,11.64
	c-0.47,4.91-4.64,10.29-7.41,13.34c-0.279,0.31-0.529,0.59-0.779,0.85c-2.263-1.812-5.194-2.566-8.051-2.07
	c-0.109-0.43-0.239-0.88-0.369-1.36c-2.24-8.08-6.891-22.09-12.82-25.16l0.78-1c2.52-3.3,5.359-8.19,1.17-9.45
	c-4.19-1.26-4.57,4.25-4.34,8.37c0,0.52,0.079,1,0.119,1.46c-1.691,0.082-3.275,0.855-4.38,2.14l-0.649-0.76
	c-3.4-4-9.63-10.37-11.521-5.56c-1.76,4.48,3.73,10.29,7.59,13.66l0.24,0.21c-2.59,10.53,8.69,19.13,14.811,22.85l0.79,0.48
	c-8.4,9.9-13.591,28.45-13.591,28.45l23.521,4.2c0,0,15.6-13.45,13.6-26.09h0.16c15.59-3.121,19.13-19.741,16.7-29.61l0.28-0.11
	c2.838-1.165,5.325-3.046,7.22-5.46C221.66,360.14,212.5,353.3,208.04,359.25z"/>
<path fill="#2271FF" d="M161.22,366.03l-2.72,8.05c0,0-1.53-1.08-3.46-2.78c-3.86-3.37-9.351-9.18-7.59-13.66
	c1.89-4.81,8.119,1.54,11.52,5.56C160.31,364.79,161.22,366.03,161.22,366.03z"/>
<path fill="#2271FF" d="M167.02,361.44c-0.837,1.097-1.731,2.148-2.68,3.15c-0.234-1.401-0.398-2.813-0.49-4.23
	c-0.229-4.12,0.21-9.59,4.34-8.37C172.32,353.21,169.5,358.14,167.02,361.44z"/>
<path fill="#2271FF" d="M202.5,362.71c-0.08,2.65-0.34,4.76-0.34,4.76c-1.212-0.942-2.357-1.964-3.431-3.06
	c-3.109-3.23-6.55-8.21-1.729-11.21C202.02,350.09,202.64,357.44,202.5,362.71z"/>
<path fill="#2271FF" d="M218.74,366.18c-1.9,2.413-4.396,4.291-7.239,5.45c-0.788,0.341-1.596,0.632-2.42,0.87l-3.24-4.55
	c0.343-1.503,0.791-2.98,1.34-4.42c0.553-1.531,1.32-2.975,2.28-4.29C213.96,353.3,223.1,360.14,218.74,366.18z"/>
<path opacity="0.1" enable-background="new    " d="M158.94,363.2c1.37,1.59,2.28,2.83,2.28,2.83l-2.72,8.05
	c0,0-1.53-1.08-3.46-2.78c0.431-2.577,1.496-5.007,3.1-7.07C158.38,363.86,158.67,363.51,158.94,363.2z"/>
<path opacity="0.1" enable-background="new    " d="M167.02,361.44c-0.837,1.097-1.731,2.148-2.68,3.15
	c-0.234-1.401-0.398-2.813-0.49-4.23C164.993,360.379,166.103,360.757,167.02,361.44z"/>
<path fill="#2271FF" d="M180.5,393.4l-6.84,3c0,0-1.49-0.72-3.641-2.06c-7.189-4.43-21.64-15.56-11.95-28.68
	c9.69-13.12,17.771,10.42,20.95,21.92C180.03,391.03,180.5,393.4,180.5,393.4z"/>
<path opacity="0.1" enable-background="new    " d="M198.72,364.41c0.992-1.03,2.342-1.638,3.77-1.7
	c-0.079,2.65-0.34,4.76-0.34,4.76C200.939,366.528,199.793,365.506,198.72,364.41z"/>
<path opacity="0.1" enable-background="new    " d="M211.5,371.63c-0.788,0.341-1.596,0.632-2.42,0.87l-3.24-4.55
	c0.343-1.503,0.791-2.98,1.34-4.42C209.29,364.77,210.83,367.8,211.5,371.63z"/>
<path fill="#2271FF" d="M194.5,401.359l-1.15,0.201c-22.93,3.489-7.56-8.88-7.56-8.88s1-0.95,2.43-2.51
	c2.77-3.05,6.93-8.4,7.41-13.34c0.72-7.43,1.55-14.4,10.32-12.35C214.6,366.49,216.25,397.01,194.5,401.359z"/>
<rect x="150.3" y="458.44" fill="#474157" width="43.81" height="11.52"/>
<rect x="143.34" y="421" fill="#474157" width="57.24" height="40.2"/>
<rect x="149.88" y="458.44" opacity="0.1" enable-background="new    " width="43.81" height="11.52"/>
<rect x="143.16" y="421.01" opacity="0.1" enable-background="new    " width="57.239" height="40.2"/>
<rect x="153.18" y="458.44" fill="#474157" width="43.81" height="11.52"/>
<path opacity="0.1" enable-background="new    " d="M179.06,387.63c1,3.44,1.48,5.81,1.48,5.81l-6.84,3c0,0-1.49-0.72-3.641-2.06
	C172.74,390.95,175.76,388.38,179.06,387.63z"/>
<path opacity="0.1" enable-background="new    " d="M194.5,401.359l-1.15,0.201c-22.93,3.489-7.56-8.88-7.56-8.88s1-0.95,2.43-2.51
	C192.5,393.63,194.31,397.46,194.5,401.359z"/>
<path fill="#2271FF" d="M157.26,423.28c0,0,12.84-46,30.85-31.8c18.011,14.2-7.33,36-7.33,36L157.26,423.28z"/>
<circle opacity="0.1" enable-background="new    " cx="163.74" cy="372.87" r="1.44"/>
<circle opacity="0.1" enable-background="new    " cx="163.62" cy="379.6" r="1.44"/>
<circle opacity="0.1" fill="#E06E10" enable-background="new    " cx="205.39" cy="374.19" r="1.44"/>
<circle opacity="0.1" enable-background="new    " cx="171.78" cy="408.64" r="1.44"/>
<circle opacity="0.1" enable-background="new    " cx="202.39" cy="385.36" r="1.44"/>
<circle opacity="0.1" enable-background="new    " cx="187.51" cy="400.24" r="1.44"/>
<circle opacity="0.1" enable-background="new    " cx="168.66" cy="375.75" r="1.44"/>
<circle opacity="0.1" enable-background="new    " cx="201.43" cy="378.52" r="1.44"/>
<circle opacity="0.1" enable-background="new    " cx="196.51" cy="389.68" r="1.44"/>
<circle opacity="0.1" enable-background="new    " cx="181.38" cy="407.56" r="1.44"/>
<circle opacity="0.1" enable-background="new    " cx="178.26" cy="400.48" r="1.44"/>
<circle opacity="0.1" enable-background="new    " cx="170.82" cy="384.52" r="1.44"/>
<rect x="153.18" y="458.44" opacity="0.1" enable-background="new    " width="43.81" height="4.21"/>
<rect x="146.22" y="421" fill="#474157" width="57.24" height="40.2"/>
<circle opacity="0.1" enable-background="new    " cx="183.3" cy="414.04" r="1.44"/>
<circle opacity="0.1" enable-background="new    " cx="174.66" cy="415.84" r="1.439"/>
<path fill="#E06E10" d="M311.89,574.63c0,0,7.13,9.33-3.29,23.41s-19,26-15.56,34.76c0,0,15.739-26.16,28.55-26.52
	C334.4,605.92,325.98,590.37,311.89,574.63z"/>
<path opacity="0.1" enable-background="new    " d="M311.89,574.63c0.623,0.899,1.114,1.882,1.46,2.92
	c12.49,14.681,19.15,28.38,7.14,28.73c-11.189,0.35-24.609,20.35-27.829,25.35c0.109,0.39,0.239,0.78,0.38,1.15
	c0,0,15.739-26.16,28.55-26.521C334.4,605.9,325.98,590.37,311.89,574.63z"/>
<path fill="#FFD037" d="M325.15,586.53c0,3.28-0.37,5.939-0.82,5.939c-0.449,0-0.819-2.659-0.819-5.939s0.46-1.74,0.91-1.74
	C324.869,584.79,325.15,583.24,325.15,586.53z"/>
<path fill="#FFD037" d="M329.699,590.45c-2.88,1.569-5.39,2.52-5.609,2.12c-0.221-0.4,1.939-2,4.83-3.57c2.89-1.57,1.739-0.43,2,0
	C331.18,589.43,332.59,588.88,329.699,590.45z"/>
<path fill="#E06E10" d="M274.2,574.63c0,0-7.131,9.33,3.29,23.41c10.42,14.08,19,26,15.55,34.76c0,0-15.73-26.16-28.54-26.52
	C251.69,605.92,260.11,590.37,274.2,574.63z"/>
<path opacity="0.1" enable-background="new    " d="M274.2,574.63c-0.624,0.899-1.115,1.882-1.46,2.92
	c-12.49,14.681-19.15,28.38-7.141,28.73c11.19,0.35,24.61,20.35,27.83,25.35c-0.108,0.391-0.239,0.774-0.39,1.15
	c0,0-15.73-26.15-28.54-26.49C251.69,605.95,260.11,590.37,274.2,574.63z"/>
<path fill="#FFD037" d="M260.94,586.53c0,3.28,0.37,5.939,0.82,5.939s0.82-2.659,0.82-5.939s-0.46-1.74-0.91-1.74
	S260.94,583.24,260.94,586.53z"/>
<path fill="#FFD037" d="M256.39,590.45c2.88,1.569,5.39,2.52,5.61,2.12c0.22-0.4-1.94-2-4.83-3.57c-2.891-1.57-1.74-0.43-2,0
	S253.5,588.88,256.39,590.45z"/>
<ellipse opacity="0.1" fill="#2271FF" enable-background="new    " cx="293.04" cy="692.74" rx="74.6" ry="11.45"/>
<path fill="#65617D" d="M331.44,620.24l-0.36,2.91l-0.5,4.119l-0.199,1.711l-0.511,4.119l-0.21,1.721l-0.5,4.109L323.5,685.73
	c-0.511,4.18-7.341,7.43-15.57,7.43h-29.72c-8.24,0-15-3.25-15.561-7.43l-5.72-46.801l-0.5-4.109l-0.21-1.721l-0.51-4.119
	l-0.2-1.711l-0.5-4.119l-0.36-2.91c-0.29-2.36,3.4-4.36,8.07-4.36h60.66C328.03,615.88,331.73,617.88,331.44,620.24z"/>
<polygon fill="#9D9CB5" points="331.079,623.15 330.579,627.26 255.51,627.26 255.01,623.15 "/>
<polygon fill="#9D9CB5" points="330.38,628.98 329.88,633.1 256.22,633.1 255.71,628.98 "/>
<polygon fill="#9D9CB5" points="329.659,634.81 329.159,638.93 256.93,638.93 256.43,634.81 "/>
</svg>
